<?xml version="1.0" encoding="utf-8"?>
<svg width="32px" height="32px" viewBox="0 0 32 32" version="1.1" xmlns:xlink="http://www.w3.org/1999/xlink" xmlns="http://www.w3.org/2000/svg">
  <defs>
    <path d="M22 0C27.5236 0 32 4.4764 32 10L32 22C32 27.5236 27.5236 32 22 32L10 32C4.4764 32 0 27.5236 0 22L0 10C0 4.4764 4.4764 0 10 0L22 0Z" id="path_1" />
    <path d="M20 0L20 0L20 24.1573L0 24.1573L0 0L20 0Z" id="path_2" />
    <clipPath id="clip_1">
      <use xlink:href="#path_1" clip-rule="evenodd" fill-rule="evenodd" />
    </clipPath>
    <clipPath id="clip_2">
      <use xlink:href="#path_2" clip-rule="evenodd" fill-rule="evenodd" />
    </clipPath>
  </defs>
  <g id="Icon 32" clip-path="url(#clip_1)">
    <path d="M22 0C27.5236 0 32 4.4764 32 10L32 22C32 27.5236 27.5236 32 22 32L10 32C4.4764 32 0 27.5236 0 22L0 10C0 4.4764 4.4764 0 10 0L22 0Z" id="Icon-32" fill="#FFFFFF" stroke="none" />
    <path d="M-5.35965 23L22.9246 -5.28429L29.9957 1.78677L1.71142 30.071L-5.35965 23Z" id="Soft-peach" fill="#EEF296" fill-rule="evenodd" stroke="none" />
    <path d="M-7.55635 13.0711L15.0711 -9.55635L21.435 -3.19239L-1.19239 19.435L-7.55635 13.0711Z" id="Soft-red" fill="#FF8F8F" fill-rule="evenodd" stroke="none" />
    <path d="M2.00001 29L30.9914 0.00864601L38.0625 7.07971L9.07108 36.0711L2.00001 29Z" id="Soft-darkgreen" fill="#508D69" fill-rule="evenodd" stroke="none" />
    <path d="M12 33L32.5061 12.4939L39.5772 19.565L19.0711 40.0711L12 33Z" id="Soft-lightgreen" fill="#9ADE7B" fill-rule="evenodd" stroke="none" />
    <g id="TuxFlat" clip-path="url(#clip_2)" transform="translate(6.000023 4)">
      <path d="M20 0L20 0L20 24.1573L0 24.1573L0 0L20 0Z" id="TuxFlat" fill="none" stroke="none" />
      <path d="M19.211 19.0376C19.2107 19.0374 19.2104 19.0371 19.2104 19.0368C19.0399 18.8444 18.9587 18.4876 18.8713 18.1076C18.7842 17.7278 18.6868 17.3183 18.375 17.0528C18.3744 17.0522 18.3736 17.0517 18.373 17.0511C18.3112 16.9972 18.2478 16.9517 18.184 16.9137C18.12 16.8758 18.0551 16.8449 17.9902 16.8205C18.4236 15.5351 18.2537 14.2551 17.816 13.0986C17.2792 11.6789 16.3419 10.4421 15.6259 9.59607C14.8245 8.58511 14.0407 7.62556 14.0562 6.20815C14.0801 4.04494 14.2941 0.033427 10.4874 0.0280899C10.3326 0.027809 10.1711 0.0342697 10.0028 0.0477528C5.74888 0.390169 6.87725 4.88455 6.81405 6.38933C6.73624 7.48989 6.5132 8.3573 5.75618 9.43315C4.86714 10.4905 3.61489 12.202 3.02191 13.9837C2.74214 14.8244 2.60899 15.6814 2.73174 16.4927C2.69326 16.5272 2.65674 16.5635 2.62163 16.6006C2.36067 16.8795 2.1677 17.2171 1.95281 17.4444C1.75197 17.6449 1.46601 17.7211 1.1514 17.8337C0.836798 17.9466 0.491573 18.1129 0.282023 18.5151C0.282023 18.5151 0.282023 18.5155 0.281742 18.5155C0.281461 18.516 0.28118 18.5169 0.280618 18.5174C0.182023 18.7014 0.15 18.9 0.15 19.1014C0.15 19.2876 0.177528 19.4764 0.205337 19.6581C0.263202 20.0362 0.32191 20.3938 0.244101 20.6359C-0.00477519 21.3165 -0.0367977 21.7871 0.138483 22.1287C0.314326 22.4708 0.675281 22.6216 1.08343 22.707C1.89972 22.8772 3.00506 22.8351 3.87612 23.2969L3.95112 23.1556L3.87697 23.2972C4.80955 23.7848 5.75506 23.9579 6.50927 23.7857C7.05646 23.661 7.50028 23.3351 7.72837 22.834C8.31826 22.8312 8.96573 22.5812 10.0028 22.5242C10.7065 22.4674 11.5854 22.7742 12.5963 22.718C12.6228 22.8275 12.661 22.9331 12.7132 23.0334C12.7138 23.0342 12.7143 23.0354 12.7149 23.0362C13.1067 23.8199 13.8348 24.1784 14.611 24.1171C15.3879 24.0559 16.214 23.5978 16.882 22.8031L16.7596 22.7003L16.8829 22.802C17.5194 22.0301 18.5759 21.7101 19.2767 21.2876C19.627 21.0764 19.911 20.8118 19.9332 20.4275C19.9551 20.0435 19.7295 19.6132 19.211 19.0376L19.211 19.0376Z" id="path3" fill="#202020" stroke="none" />
      <path d="M19.6135 20.4093C19.6 20.6463 19.4284 20.8225 19.1112 21.0135C18.4775 21.3958 17.3542 21.7284 16.6371 22.5972C16.014 23.3385 15.2545 23.7455 14.5857 23.7983C13.9169 23.8511 13.3399 23.5736 12.9994 22.8907L12.9988 22.8893L12.998 22.8876C12.7868 22.4859 12.8747 21.8525 13.0525 21.184C13.2303 20.5157 13.4859 19.8292 13.5202 19.2716L13.5202 19.2699C13.5561 18.5553 13.5963 17.9312 13.7162 17.4494C13.8365 16.9677 14.0255 16.6418 14.3604 16.4584C14.3761 16.45 14.3915 16.4418 14.407 16.4342C14.4449 17.0531 14.7514 17.6846 15.2929 17.821C15.8856 17.9772 16.7399 17.4688 17.1005 17.0539C17.1727 17.0511 17.2429 17.0474 17.3112 17.0458C17.6278 17.0381 17.8929 17.0564 18.1643 17.2935L18.1651 17.2943L18.166 17.2949C18.3744 17.4716 18.4735 17.8053 18.5595 18.1789C18.6455 18.5528 18.714 18.9598 18.9719 19.25L18.9722 19.2503L18.9724 19.2508C19.468 19.8006 19.6272 20.1719 19.6135 20.4093L19.6135 20.4093Z" id="path5" fill="#F8BF11" stroke="none" />
      <path d="M7.56994 22.1615L7.56966 22.1632L7.56966 22.1652C7.51236 22.9163 7.08876 23.3253 6.4382 23.4739C5.7882 23.6225 4.90646 23.4745 4.02612 23.014C4.02584 23.014 4.02556 23.0138 4.02528 23.0138C3.05112 22.4978 1.89242 22.5492 1.14888 22.3938C0.777247 22.3163 0.53455 22.1994 0.423314 21.9826C0.312078 21.7654 0.30955 21.3871 0.546067 20.7419L0.547191 20.739L0.548033 20.7362C0.665168 20.3753 0.57837 19.9803 0.521629 19.6095C0.464887 19.239 0.437078 18.9017 0.563764 18.6668L0.564887 18.6646C0.726966 18.3522 0.964606 18.2404 1.25955 18.1348C1.55477 18.0289 1.90449 17.9458 2.18062 17.6688L2.1823 17.6674L2.18371 17.666C2.43904 17.3966 2.6309 17.0587 2.85534 16.8191C3.04466 16.6168 3.23427 16.4828 3.51994 16.4809C3.52331 16.4812 3.5264 16.4812 3.52977 16.4809C3.57978 16.4812 3.63287 16.4854 3.68904 16.4941C4.06826 16.5514 4.39888 16.8165 4.71742 17.2486L5.63708 18.9247L5.63736 18.9255L5.63792 18.9261C5.88258 19.4371 6.39944 19.9991 6.83736 20.5724C7.27528 21.1455 7.61405 21.7211 7.56994 22.1615L7.56994 22.1615Z" id="path7" fill="#F8BF11" stroke="none" />
      <path d="M12.1565 6.53624C12.0826 6.39157 11.9317 6.25393 11.675 6.1486L11.6744 6.14831L11.6736 6.14803C11.1396 5.91938 10.9079 5.90309 10.6098 5.70927C10.1247 5.39747 9.72388 5.2882 9.39073 5.28961C9.21629 5.29017 9.06039 5.32107 8.92079 5.36938C8.51489 5.50899 8.24551 5.80028 8.07669 5.96011L8.0764 5.96039C8.0764 5.96067 8.07612 5.96067 8.07612 5.96096C8.04298 5.99242 8.00028 6.02107 7.89691 6.09691C7.7927 6.17303 7.63652 6.28764 7.4118 6.45618C7.21208 6.6059 7.14719 6.80084 7.21629 7.02921C7.28511 7.25758 7.50534 7.52107 7.90815 7.74888L7.90871 7.74944L7.90955 7.74972C8.15955 7.89663 8.33034 8.09466 8.5264 8.25225C8.62444 8.3309 8.72753 8.40112 8.85168 8.45421C8.97584 8.5073 9.12079 8.54326 9.30225 8.55393C9.72809 8.57865 10.0416 8.45084 10.3183 8.29241C10.5955 8.13427 10.8303 7.94073 11.0997 7.85337L11.1003 7.85309L11.1009 7.85281C11.6531 7.68034 12.0469 7.33286 12.1702 7.00281C12.232 6.83764 12.2301 6.6809 12.1565 6.53624L12.1565 6.53624Z" id="path9" fill="#F8BF11" stroke="none" />
      <path d="M10.7553 7.3514C10.316 7.58041 9.80281 7.85815 9.25674 7.85815C8.71096 7.85815 8.27978 7.6059 7.96966 7.36011C7.81461 7.23736 7.68876 7.11517 7.59382 7.0264C7.42909 6.89638 7.44882 6.714 7.5165 6.71938C7.62995 6.73354 7.6471 6.88291 7.71854 6.94972C7.81517 7.04017 7.93624 7.1573 8.08286 7.2736C8.37612 7.5059 8.76713 7.73202 9.25674 7.73202C9.74551 7.73202 10.3161 7.44508 10.6643 7.24972C10.8616 7.13904 11.1127 6.94064 11.3176 6.79024C11.4744 6.67517 11.4686 6.53661 11.5981 6.5517C11.7275 6.56678 11.6318 6.70506 11.4505 6.86326C11.2692 7.02145 10.9857 7.23135 10.7553 7.3514L10.7553 7.3514Z" id="path11" fill="#202020" stroke="none" />
      <path d="M17.4829 16.7267C17.4219 16.7244 17.3618 16.7247 17.3034 16.7261C17.298 16.7264 17.2927 16.7264 17.2871 16.7264C17.4379 16.25 17.1042 15.8986 16.2149 15.4963C15.2927 15.0908 14.5579 15.1309 14.4337 15.9539C14.4258 15.9969 14.4194 16.041 14.4146 16.0854C14.3455 16.1096 14.2764 16.1399 14.2067 16.1778C13.7739 16.4149 13.5374 16.8447 13.4059 17.3722C13.2747 17.8992 13.2368 18.536 13.2008 19.252C13.2008 19.2523 13.2008 19.2523 13.2008 19.2526C13.1786 19.6124 13.0303 20.0995 12.8803 20.6152C11.3697 21.693 9.27303 22.1599 7.4927 20.9447C7.37219 20.754 7.23371 20.5649 7.09129 20.3784C7.00028 20.2593 6.90674 20.141 6.81405 20.0242C6.99663 20.0245 7.15197 19.9944 7.27753 19.9377C7.43371 19.8666 7.54326 19.7531 7.59775 19.607C7.70618 19.3152 7.59719 18.9034 7.24972 18.4329C6.90225 17.9627 6.31376 17.432 5.44916 16.9017C5.44916 16.9017 5.44916 16.9017 5.44916 16.9014C4.81377 16.5062 4.45871 16.0219 4.29242 15.4961C4.12584 14.97 4.14916 14.4011 4.27753 13.8396C4.5236 12.7618 5.15562 11.7135 5.55899 11.0556C5.66742 10.9759 5.59775 11.204 5.15056 12.0343C4.75 12.7933 4.00084 14.545 5.02641 15.9124C5.05393 14.9394 5.28624 13.9469 5.67641 13.0186C6.24466 11.7306 7.43315 9.49665 7.52753 7.71632C7.57641 7.75171 7.74354 7.86463 7.81798 7.90705C7.81826 7.90733 7.81826 7.90733 7.81854 7.90733C8.03652 8.0357 8.20028 8.22334 8.41236 8.39385C8.625 8.56463 8.89045 8.7121 9.29157 8.73542C9.33006 8.73767 9.3677 8.73879 9.40449 8.73879C9.81798 8.73879 10.1404 8.60396 10.409 8.45031C10.7009 8.28345 10.934 8.09862 11.1551 8.02671C11.1554 8.02643 11.1556 8.02643 11.1559 8.02643C11.6231 7.88036 11.9941 7.62194 12.2053 7.32081C12.5683 8.75115 13.4121 10.8172 13.9545 11.8253C14.243 12.3601 14.8166 13.4967 15.0644 14.866C15.2214 14.8612 15.3944 14.884 15.5795 14.9315C16.2276 13.2514 15.0301 11.4421 14.4823 10.9382C14.2613 10.7236 14.2506 10.6275 14.3604 10.632C14.9542 11.1576 15.7343 12.214 16.018 13.4067C16.1475 13.9505 16.175 14.5225 16.0362 15.0868C16.1039 15.1149 16.173 15.1455 16.243 15.1787C17.2831 15.6851 17.6677 16.1256 17.4829 16.7267L17.4829 16.7267Z" id="path13" fill="#FFFFFF" stroke="none" />
      <path d="M10.0702 12.1853C8.10576 12.1923 6.34347 13.9741 5.62473 16.6798L5.73006 16.7454L5.73006 16.7513C6.54108 17.2662 7.11868 17.7829 7.47564 18.2659L7.47564 18.266L7.4757 18.266C7.85302 18.7769 8.02093 19.2746 7.86105 19.7049L7.861 19.7051L7.86094 19.7052C7.78 19.9222 7.60757 20.0961 7.39389 20.1933L7.39351 20.1935L7.39318 20.1937C7.37072 20.2038 7.34673 20.2113 7.32345 20.22C7.45126 20.3877 7.57645 20.5604 7.6918 20.7379C9.32067 21.8219 11.2155 21.4208 12.6376 20.4401C12.7765 19.9615 12.903 19.5152 12.9204 19.2362C12.9564 18.5193 12.9925 17.87 13.1333 17.3044L13.1333 17.3043C13.2753 16.7348 13.5513 16.2165 14.0718 15.9314L14.0721 15.9312L14.0724 15.9311C14.1017 15.9152 14.1311 15.9059 14.1604 15.892C14.1698 15.8357 14.1828 15.7815 14.1986 15.7292C13.3465 13.5449 11.7743 12.1953 10.0702 12.1853L10.0702 12.1853ZM14.1574 15.9034L14.1559 15.912C14.1561 15.9111 14.1564 15.9102 14.1566 15.9092C14.1569 15.9073 14.1571 15.9053 14.1574 15.9034L14.1574 15.9034Z" id="path4166" fill="#E6E6E6" fill-rule="evenodd" stroke="none" />
      <path d="M12.2053 4.88848C12.2076 5.17191 12.1587 5.4132 12.0511 5.65955C11.9899 5.8 11.9194 5.91798 11.8349 6.02022C11.8062 6.00646 11.7764 5.99326 11.7455 5.98062C11.6385 5.93483 11.5438 5.89719 11.459 5.86517C11.3742 5.83315 11.308 5.81127 11.2397 5.78767C11.2891 5.72784 11.3866 5.65733 11.4228 5.56885C11.4779 5.43542 11.5049 5.30509 11.5099 5.14975C11.5099 5.14357 11.5119 5.13823 11.5119 5.13093C11.515 4.98205 11.4953 4.8548 11.4518 4.72447C11.4063 4.58767 11.3484 4.48936 11.2647 4.40761C11.1807 4.32587 11.097 4.28879 10.9964 4.28542C10.9917 4.28514 10.9872 4.28514 10.9824 4.28514C10.888 4.28542 10.806 4.31801 10.7211 4.38879C10.6321 4.46323 10.5661 4.55846 10.511 4.69104C10.4563 4.82362 10.4293 4.95509 10.4239 5.11127C10.4231 5.11744 10.4231 5.12278 10.4231 5.12896C10.4212 5.21492 10.4268 5.29357 10.44 5.36997C10.2467 5.27363 9.99947 5.20337 9.82868 5.16264C9.81885 5.08876 9.81323 5.01264 9.81155 4.93287L9.81155 4.91124C9.80846 4.62865 9.8548 4.38624 9.96351 4.14017C10.0722 3.89382 10.2068 3.71685 10.3961 3.57275C10.5857 3.42893 10.7719 3.36292 10.9924 3.36067L11.0028 3.36067C11.2185 3.36067 11.4031 3.42416 11.5927 3.56152C11.7851 3.70141 11.9239 3.87612 12.0357 4.12051C12.1452 4.35871 12.198 4.59157 12.2034 4.8677C12.2034 4.875 12.2034 4.88118 12.2053 4.88848L12.2053 4.88848Z" id="path15" fill="#FFFFFF" stroke="none" />
      <path d="M8.94466 5.17079C8.91629 5.17893 8.88876 5.18764 8.86152 5.19691C8.70702 5.25028 8.58436 5.30918 8.46582 5.38755C8.47733 5.30553 8.47902 5.22238 8.47003 5.12941C8.46919 5.12435 8.46919 5.12014 8.46919 5.11508C8.45683 4.99177 8.43071 4.88839 8.38717 4.7839C8.34082 4.67519 8.28885 4.59851 8.22059 4.53952C8.1588 4.48615 8.10037 4.46143 8.03576 4.46199C8.0293 4.46199 8.02256 4.46227 8.01582 4.46283C7.94335 4.46901 7.88323 4.50441 7.82621 4.57379C7.76947 4.64289 7.73211 4.72885 7.70514 4.84289C7.67818 4.95665 7.67116 5.06845 7.68239 5.19682C7.68239 5.20188 7.68352 5.20609 7.68352 5.21115C7.69588 5.33559 7.72088 5.43896 7.76526 5.54345C7.81076 5.65104 7.86357 5.72772 7.93183 5.78671C7.94335 5.79654 7.95458 5.80553 7.96582 5.8134C7.89503 5.86817 7.84747 5.90702 7.78905 5.94972C7.75169 5.97697 7.7073 6.00955 7.65562 6.04775C7.54298 5.94214 7.45506 5.80955 7.37809 5.63455C7.28708 5.42781 7.23848 5.22079 7.22388 4.9764L7.22388 4.97444C7.21039 4.73006 7.23427 4.51994 7.30141 4.30253C7.36882 4.08511 7.45871 3.92781 7.58933 3.7986C7.71966 3.6691 7.85112 3.60393 8.00955 3.59579C8.02191 3.59522 8.03399 3.59494 8.04607 3.59494C8.18961 3.59522 8.3177 3.64298 8.45028 3.74888C8.5941 3.86376 8.70281 4.01067 8.79382 4.2177C8.88511 4.42472 8.93371 4.63174 8.94719 4.87612L8.94719 4.87809C8.95365 4.98062 8.95281 5.07725 8.94466 5.17079L8.94466 5.17079Z" id="path17" fill="#FFFFFF" stroke="none" />
      <path d="M9.66535 5.75533C9.68352 5.81365 9.77752 5.80398 9.83182 5.83195C9.87947 5.8565 9.9178 5.9103 9.97138 5.91184C10.0225 5.91332 10.1021 5.89413 10.1088 5.84341C10.1175 5.7764 10.0197 5.73381 9.95671 5.70926C9.87568 5.67767 9.77187 5.66164 9.69586 5.70391C9.67844 5.71359 9.65943 5.7363 9.66535 5.75533L9.66535 5.75533Z" id="path28396-7" fill="#202020" stroke="none" />
      <path d="M9.11018 5.75533C9.09201 5.81365 8.99801 5.80398 8.94371 5.83195C8.89606 5.8565 8.85773 5.9103 8.80415 5.91184C8.75301 5.91332 8.67343 5.89413 8.66678 5.84341C8.65799 5.7764 8.75585 5.73381 8.81882 5.70926C8.89985 5.67767 9.00366 5.66164 9.07967 5.70391C9.09709 5.71359 9.1161 5.7363 9.11018 5.75533L9.11018 5.75533Z" id="path5461" fill="#202020" stroke="none" />
    </g>
  </g>
</svg>